<?xml version="1.0" standalone="no"?>
<!DOCTYPE svg PUBLIC "-//W3C//DTD SVG 20010904//EN"
 "http://www.w3.org/TR/2001/REC-SVG-20010904/DTD/svg10.dtd">
<svg version="1.0" xmlns="http://www.w3.org/2000/svg"
 width="128.000000pt" height="128.000000pt" viewBox="0 0 128.000000 128.000000"
 preserveAspectRatio="xMidYMid meet">
<metadata>
Created by potrace 1.14, written by Peter Selinger 2001-2017
</metadata>
<g transform="translate(0.000000,128.000000) scale(0.100000,-0.100000)"
fill="#000000" stroke="none">
<path d="M1070 805 c-173 -55 -692 -188 -729 -188 -74 1 -110 54 -92 134 5 22
7 39 6 39 -2 0 -24 -31 -49 -68 -76 -115 -84 -190 -25 -234 54 -41 137 -30
278 34 25 11 175 76 335 145 367 158 354 152 336 152 -8 0 -35 -7 -60 -14z"/>
</g>
</svg>
